<svg width="28" height="28" viewBox="0 0 28 28" fill="none" xmlns="http://www.w3.org/2000/svg">
<g clip-path="url(#clip0_2195_14364)">
<rect width="28" height="28" fill="white"/>
<g clip-path="url(#clip1_2195_14364)">
<path d="M21.314 20.4709V16.2809M21.2727 8.81813V4.38015C21.2727 3.74889 21.0428 3.14349 20.6336 2.69713C20.2245 2.25076 19.6695 2 19.0909 2H8.90915C8.3305 2 7.77555 2.25076 7.36638 2.69713C6.95721 3.14349 6.72735 3.74889 6.72735 4.38015V8.69416M6.72735 16.5133V23.4213C6.72735 24.0526 6.95721 24.658 7.36638 25.1043C7.77555 25.5507 8.3305 25.8015 8.90915 25.8015H13.6218L13.7273 25.9998L14.3564 25.6031L12.7891 22.6438C12.7409 22.5536 12.7096 22.4538 12.6971 22.3503C12.6846 22.2468 12.6912 22.1416 12.7164 22.0408C12.766 21.837 12.8876 21.663 13.0546 21.5569C13.2227 21.4541 13.4205 21.4257 13.6073 21.4775C13.7 21.5039 13.7868 21.5505 13.8624 21.6146C13.9381 21.6787 14.001 21.759 14.0473 21.8504L14.7746 23.223C14.8154 23.2983 14.8775 23.3571 14.9516 23.3907C15.0257 23.4243 15.1077 23.4309 15.1855 23.4094C15.2629 23.3867 15.3314 23.3366 15.38 23.267C15.4287 23.1974 15.4549 23.1122 15.4545 23.0246V17.0743C15.4545 16.8638 15.5312 16.662 15.6676 16.5133C15.8039 16.3645 15.9889 16.2809 16.1818 16.2809C16.3747 16.2809 16.5597 16.3645 16.6961 16.5133C16.8325 16.662 16.9091 16.8638 16.9091 17.0743V21.8346C16.9091 21.9398 16.9474 22.0407 17.0156 22.1151C17.0838 22.1894 17.1763 22.2312 17.2727 22.2312C17.3692 22.2312 17.4616 22.1894 17.5298 22.1151C17.598 22.0407 17.6363 21.9398 17.6363 21.8346V20.2478C17.6363 20.0374 17.713 19.8356 17.8494 19.6868C17.9857 19.538 18.1707 19.4544 18.3636 19.4544C18.5565 19.4544 18.7415 19.538 18.8779 19.6868C19.0143 19.8356 19.0909 20.0374 19.0909 20.2478V21.8346C19.0909 21.9398 19.1292 22.0407 19.1974 22.1151C19.2656 22.1894 19.3581 22.2312 19.4545 22.2312C19.551 22.2312 19.6434 22.1894 19.7116 22.1151C19.7798 22.0407 19.8181 21.9398 19.8181 21.8346V20.6445C19.8181 20.4341 19.8948 20.2323 20.0312 20.0835C20.1676 19.9347 20.3525 19.8511 20.5454 19.8511C20.7383 19.8511 20.9233 19.9347 21.0597 20.0835C21.1961 20.2323 21.2727 20.4341 21.2727 20.6445V21.8346C21.2727 21.9398 21.311 22.0407 21.3792 22.1151C21.4474 22.1894 21.5399 22.2312 21.6363 22.2312C21.7328 22.2312 21.8252 22.1894 21.8934 22.1151C21.9616 22.0407 22 21.9398 22 21.8346V21.0412C22 20.8308 22.0766 20.629 22.213 20.4802C22.3494 20.3314 22.5343 20.2478 22.7272 20.2478C22.9201 20.2478 23.1051 20.3314 23.2415 20.4802C23.3779 20.629 23.4545 20.8308 23.4545 21.0412V25.8015M22.1772 11H22.9044M20.7226 11H19.9954M15.0909 4.38015H12.9091M12.1818 4.38015H11.4546M7.09098 11.1239H7.81825M4.90918 11.1239H5.63645M4.90918 12.7107C4.90918 13.1315 5.06242 13.5351 5.3352 13.8327C5.60798 14.1302 5.97795 14.2974 6.36371 14.2974C6.74948 14.2974 7.11945 14.1302 7.39222 13.8327C7.665 13.5351 7.81825 13.1315 7.81825 12.7107M7.45461 21.8346C7.18189 21.8346 12.6971 21.8346 12.6971 21.8346C12.6971 21.8346 6.53727 21.8346 6.80999 21.8346M7.248 5.96691H21.19M19.9954 14.2847C19.9954 13.8638 20.1486 13.4602 20.4214 13.1627C20.6942 12.8651 21.0641 12.6979 21.4499 12.6979C21.8357 12.6979 22.2056 12.8651 22.4784 13.1627C22.7512 13.4602 22.9044 13.8638 22.9044 14.2847M6.87611 5.96691H20.6942" stroke="#194B3F"/>
<circle cx="6.5" cy="12.5" r="4" stroke="#194B3F"/>
<circle cx="21.5" cy="12.5" r="4" stroke="#194B3F"/>
</g>
</g>
<defs>
<clipPath id="clip0_2195_14364">
<rect width="28" height="28" fill="white"/>
</clipPath>
<clipPath id="clip1_2195_14364">
<rect width="28" height="28" fill="white"/>
</clipPath>
</defs>
</svg>
